<svg width="183" height="44" viewBox="0 0 183 44" fill="none" xmlns="http://www.w3.org/2000/svg">
<rect width="183" height="44" rx="22" fill="url(#paint0_linear_1_142)"/>
<path d="M35.25 21.5391H33.8984V20.5781H35.1953C35.7682 20.5781 36.2318 20.4974 36.5859 20.3359C36.9401 20.1745 37.1979 19.9505 37.3594 19.6641C37.5208 19.3776 37.6016 19.0469 37.6016 18.6719C37.6016 18.3125 37.513 17.9844 37.3359 17.6875C37.1589 17.3854 36.8854 17.1458 36.5156 16.9688C36.1458 16.7865 35.6693 16.6953 35.0859 16.6953C34.6484 16.6953 34.2526 16.7786 33.8984 16.9453C33.5443 17.1068 33.263 17.3333 33.0547 17.625C32.8464 17.9115 32.7422 18.2422 32.7422 18.6172H31.2344C31.2344 18.1328 31.3359 17.6979 31.5391 17.3125C31.7422 16.9219 32.0208 16.5911 32.375 16.3203C32.7292 16.0443 33.138 15.8333 33.6016 15.6875C34.0703 15.5417 34.5651 15.4688 35.0859 15.4688C35.6953 15.4688 36.2474 15.5391 36.7422 15.6797C37.237 15.8151 37.6615 16.0182 38.0156 16.2891C38.3698 16.5599 38.6406 16.8958 38.8281 17.2969C39.0156 17.6979 39.1094 18.1641 39.1094 18.6953C39.1094 19.0859 39.0182 19.4531 38.8359 19.7969C38.6536 20.1406 38.3932 20.4427 38.0547 20.7031C37.7161 20.9635 37.3099 21.1693 36.8359 21.3203C36.362 21.4661 35.8333 21.5391 35.25 21.5391ZM33.8984 20.875H35.25C35.8906 20.875 36.4609 20.9401 36.9609 21.0703C37.4609 21.2005 37.8828 21.3906 38.2266 21.6406C38.5703 21.8906 38.8307 22.2005 39.0078 22.5703C39.1901 22.9349 39.2812 23.3542 39.2812 23.8281C39.2812 24.3594 39.1771 24.8307 38.9688 25.2422C38.7656 25.6536 38.4766 26.0026 38.1016 26.2891C37.7266 26.5755 37.2812 26.7917 36.7656 26.9375C36.2552 27.0833 35.6953 27.1562 35.0859 27.1562C34.5964 27.1562 34.112 27.0938 33.6328 26.9688C33.1589 26.8385 32.7292 26.6406 32.3438 26.375C31.9583 26.1042 31.6484 25.7604 31.4141 25.3438C31.1849 24.9271 31.0703 24.4271 31.0703 23.8438H32.5781C32.5781 24.224 32.6823 24.5729 32.8906 24.8906C33.1042 25.2083 33.3984 25.4635 33.7734 25.6562C34.1484 25.8438 34.5859 25.9375 35.0859 25.9375C35.6589 25.9375 36.1432 25.849 36.5391 25.6719C36.9401 25.4896 37.2448 25.2422 37.4531 24.9297C37.6667 24.612 37.7734 24.2552 37.7734 23.8594C37.7734 23.5104 37.7161 23.2083 37.6016 22.9531C37.4922 22.6927 37.3281 22.4792 37.1094 22.3125C36.8958 22.1458 36.6276 22.0234 36.3047 21.9453C35.987 21.862 35.6172 21.8203 35.1953 21.8203H33.8984V20.875ZM46.0312 25.5547V21.2031C46.0312 20.8698 45.9635 20.5807 45.8281 20.3359C45.6979 20.0859 45.5 19.8932 45.2344 19.7578C44.9688 19.6224 44.6406 19.5547 44.25 19.5547C43.8854 19.5547 43.5651 19.6172 43.2891 19.7422C43.0182 19.8672 42.8047 20.0312 42.6484 20.2344C42.4974 20.4375 42.4219 20.6562 42.4219 20.8906H40.9766C40.9766 20.5885 41.0547 20.2891 41.2109 19.9922C41.3672 19.6953 41.5911 19.4271 41.8828 19.1875C42.1797 18.9427 42.5339 18.75 42.9453 18.6094C43.362 18.4635 43.8255 18.3906 44.3359 18.3906C44.9505 18.3906 45.4922 18.4948 45.9609 18.7031C46.4349 18.9115 46.8047 19.2266 47.0703 19.6484C47.3411 20.0651 47.4766 20.5885 47.4766 21.2188V25.1562C47.4766 25.4375 47.5 25.737 47.5469 26.0547C47.599 26.3724 47.6745 26.6458 47.7734 26.875V27H46.2656C46.1927 26.8333 46.1354 26.612 46.0938 26.3359C46.0521 26.0547 46.0312 25.7943 46.0312 25.5547ZM46.2812 21.875L46.2969 22.8906H44.8359C44.4245 22.8906 44.0573 22.9245 43.7344 22.9922C43.4115 23.0547 43.1406 23.151 42.9219 23.2812C42.7031 23.4115 42.5365 23.5755 42.4219 23.7734C42.3073 23.9661 42.25 24.1927 42.25 24.4531C42.25 24.7188 42.3099 24.9609 42.4297 25.1797C42.5495 25.3984 42.7292 25.5729 42.9688 25.7031C43.2135 25.8281 43.513 25.8906 43.8672 25.8906C44.3099 25.8906 44.7005 25.7969 45.0391 25.6094C45.3776 25.4219 45.6458 25.1927 45.8438 24.9219C46.0469 24.651 46.1562 24.388 46.1719 24.1328L46.7891 24.8281C46.7526 25.0469 46.6536 25.2891 46.4922 25.5547C46.3307 25.8203 46.1146 26.0755 45.8438 26.3203C45.5781 26.5599 45.2604 26.7604 44.8906 26.9219C44.526 27.0781 44.1146 27.1562 43.6562 27.1562C43.0833 27.1562 42.5807 27.0443 42.1484 26.8203C41.7214 26.5964 41.388 26.2969 41.1484 25.9219C40.9141 25.5417 40.7969 25.1172 40.7969 24.6484C40.7969 24.1953 40.8854 23.7969 41.0625 23.4531C41.2396 23.1042 41.4948 22.8151 41.8281 22.5859C42.1615 22.3516 42.5625 22.1745 43.0312 22.0547C43.5 21.9349 44.0234 21.875 44.6016 21.875H46.2812ZM51.3125 24.7109L55.2109 18.5469H56.6641V27H55.2109V20.8359L51.3125 27H49.875V18.5469H51.3125V24.7109ZM54.4219 15.4844H55.5938C55.5938 15.8906 55.5 16.2526 55.3125 16.5703C55.125 16.8828 54.8568 17.1276 54.5078 17.3047C54.1589 17.4818 53.7448 17.5703 53.2656 17.5703C52.5417 17.5703 51.9688 17.3776 51.5469 16.9922C51.1302 16.6016 50.9219 16.099 50.9219 15.4844H52.0938C52.0938 15.7917 52.1823 16.0625 52.3594 16.2969C52.5365 16.5312 52.8385 16.6484 53.2656 16.6484C53.6823 16.6484 53.9792 16.5312 54.1562 16.2969C54.3333 16.0625 54.4219 15.7917 54.4219 15.4844ZM62.4297 18.5469V27H60.9766V18.5469H62.4297ZM65.2656 18.5469V19.7188H58.1953V18.5469H65.2656ZM68.25 24.7109L72.1484 18.5469H73.6016V27H72.1484V20.8359L68.25 27H66.8125V18.5469H68.25V24.7109ZM83.8594 23.2812H81.0859L81.0703 22.125H83.3359C83.7839 22.125 84.1562 22.0807 84.4531 21.9922C84.7552 21.9036 84.9818 21.7708 85.1328 21.5938C85.2839 21.4167 85.3594 21.1979 85.3594 20.9375C85.3594 20.7344 85.3151 20.5573 85.2266 20.4062C85.1432 20.25 85.0156 20.1224 84.8438 20.0234C84.6719 19.9193 84.4583 19.8438 84.2031 19.7969C83.9531 19.7448 83.6589 19.7188 83.3203 19.7188H81.4688V27H80.0234V18.5469H83.3203C83.8568 18.5469 84.3385 18.5938 84.7656 18.6875C85.1979 18.7812 85.5651 18.9245 85.8672 19.1172C86.1745 19.3047 86.4089 19.5443 86.5703 19.8359C86.7318 20.1276 86.8125 20.4714 86.8125 20.8672C86.8125 21.1224 86.7604 21.3646 86.6562 21.5938C86.5521 21.8229 86.3984 22.026 86.1953 22.2031C85.9922 22.3802 85.7422 22.526 85.4453 22.6406C85.1484 22.75 84.8073 22.8203 84.4219 22.8516L83.8594 23.2812ZM83.8594 27H80.5625L81.2812 25.8281H83.8594C84.2604 25.8281 84.5938 25.7786 84.8594 25.6797C85.125 25.5755 85.3229 25.4297 85.4531 25.2422C85.5885 25.0495 85.6562 24.8203 85.6562 24.5547C85.6562 24.2891 85.5885 24.0625 85.4531 23.875C85.3229 23.6823 85.125 23.5365 84.8594 23.4375C84.5938 23.3333 84.2604 23.2812 83.8594 23.2812H81.6641L81.6797 22.125H84.4219L84.9453 22.5625C85.4089 22.599 85.8021 22.7135 86.125 22.9062C86.4479 23.099 86.6927 23.3438 86.8594 23.6406C87.026 23.9323 87.1094 24.25 87.1094 24.5938C87.1094 24.9896 87.0339 25.3385 86.8828 25.6406C86.737 25.9427 86.5234 26.1953 86.2422 26.3984C85.9609 26.5964 85.6198 26.7474 85.2188 26.8516C84.8177 26.9505 84.3646 27 83.8594 27ZM94.5859 18.5469V27H93.1406V18.5469H94.5859ZM100.133 18.5469L96.125 23.3906H94.1016L93.8828 22.125H95.5391L98.375 18.5469H100.133ZM98.5781 27L95.4688 23.1719L96.3984 22.125L100.414 27H98.5781ZM106.656 25.5547V21.2031C106.656 20.8698 106.589 20.5807 106.453 20.3359C106.323 20.0859 106.125 19.8932 105.859 19.7578C105.594 19.6224 105.266 19.5547 104.875 19.5547C104.51 19.5547 104.19 19.6172 103.914 19.7422C103.643 19.8672 103.43 20.0312 103.273 20.2344C103.122 20.4375 103.047 20.6562 103.047 20.8906H101.602C101.602 20.5885 101.68 20.2891 101.836 19.9922C101.992 19.6953 102.216 19.4271 102.508 19.1875C102.805 18.9427 103.159 18.75 103.57 18.6094C103.987 18.4635 104.451 18.3906 104.961 18.3906C105.576 18.3906 106.117 18.4948 106.586 18.7031C107.06 18.9115 107.43 19.2266 107.695 19.6484C107.966 20.0651 108.102 20.5885 108.102 21.2188V25.1562C108.102 25.4375 108.125 25.737 108.172 26.0547C108.224 26.3724 108.299 26.6458 108.398 26.875V27H106.891C106.818 26.8333 106.76 26.612 106.719 26.3359C106.677 26.0547 106.656 25.7943 106.656 25.5547ZM106.906 21.875L106.922 22.8906H105.461C105.049 22.8906 104.682 22.9245 104.359 22.9922C104.036 23.0547 103.766 23.151 103.547 23.2812C103.328 23.4115 103.161 23.5755 103.047 23.7734C102.932 23.9661 102.875 24.1927 102.875 24.4531C102.875 24.7188 102.935 24.9609 103.055 25.1797C103.174 25.3984 103.354 25.5729 103.594 25.7031C103.839 25.8281 104.138 25.8906 104.492 25.8906C104.935 25.8906 105.326 25.7969 105.664 25.6094C106.003 25.4219 106.271 25.1927 106.469 24.9219C106.672 24.651 106.781 24.388 106.797 24.1328L107.414 24.8281C107.378 25.0469 107.279 25.2891 107.117 25.5547C106.956 25.8203 106.74 26.0755 106.469 26.3203C106.203 26.5599 105.885 26.7604 105.516 26.9219C105.151 27.0781 104.74 27.1562 104.281 27.1562C103.708 27.1562 103.206 27.0443 102.773 26.8203C102.346 26.5964 102.013 26.2969 101.773 25.9219C101.539 25.5417 101.422 25.1172 101.422 24.6484C101.422 24.1953 101.51 23.7969 101.688 23.4531C101.865 23.1042 102.12 22.8151 102.453 22.5859C102.786 22.3516 103.188 22.1745 103.656 22.0547C104.125 21.9349 104.648 21.875 105.227 21.875H106.906ZM115.797 14.8672H116.984C116.984 15.3776 116.906 15.7839 116.75 16.0859C116.594 16.3828 116.38 16.612 116.109 16.7734C115.844 16.9349 115.542 17.0573 115.203 17.1406C114.87 17.224 114.523 17.3047 114.164 17.3828C113.716 17.4766 113.299 17.625 112.914 17.8281C112.534 18.026 112.206 18.3073 111.93 18.6719C111.659 19.0365 111.458 19.5104 111.328 20.0938C111.203 20.6771 111.169 21.3984 111.227 22.2578V22.9766H110.039V22.2578C110.039 21.2943 110.13 20.4531 110.312 19.7344C110.5 19.0156 110.763 18.4089 111.102 17.9141C111.44 17.4193 111.841 17.026 112.305 16.7344C112.773 16.4427 113.289 16.2422 113.852 16.1328C114.258 16.0547 114.607 15.9714 114.898 15.8828C115.19 15.7891 115.411 15.6641 115.562 15.5078C115.719 15.3516 115.797 15.138 115.797 14.8672ZM114.086 19.0312C114.638 19.0312 115.13 19.1276 115.562 19.3203C115.995 19.513 116.362 19.7812 116.664 20.125C116.966 20.4688 117.195 20.875 117.352 21.3438C117.513 21.8073 117.594 22.3125 117.594 22.8594V23.0312C117.594 23.6198 117.508 24.1667 117.336 24.6719C117.169 25.1719 116.922 25.6094 116.594 25.9844C116.271 26.3542 115.875 26.6432 115.406 26.8516C114.943 27.0599 114.414 27.1641 113.82 27.1641C113.227 27.1641 112.695 27.0599 112.227 26.8516C111.763 26.6432 111.367 26.3542 111.039 25.9844C110.711 25.6094 110.461 25.1719 110.289 24.6719C110.122 24.1667 110.039 23.6198 110.039 23.0312V22.8594C110.039 22.7292 110.062 22.6016 110.109 22.4766C110.156 22.3516 110.214 22.224 110.281 22.0938C110.354 21.9635 110.419 21.8255 110.477 21.6797C110.669 21.2109 110.932 20.776 111.266 20.375C111.604 19.974 112.008 19.651 112.477 19.4062C112.951 19.1562 113.487 19.0312 114.086 19.0312ZM113.805 20.2109C113.273 20.2109 112.836 20.3333 112.492 20.5781C112.154 20.8229 111.901 21.1484 111.734 21.5547C111.568 21.9557 111.484 22.3906 111.484 22.8594V23.0312C111.484 23.4271 111.531 23.8021 111.625 24.1562C111.719 24.5104 111.859 24.8255 112.047 25.1016C112.24 25.3724 112.482 25.5859 112.773 25.7422C113.07 25.8984 113.419 25.9766 113.82 25.9766C114.221 25.9766 114.568 25.8984 114.859 25.7422C115.151 25.5859 115.391 25.3724 115.578 25.1016C115.766 24.8255 115.906 24.5104 116 24.1562C116.094 23.8021 116.141 23.4271 116.141 23.0312V22.8594C116.141 22.5052 116.094 22.1693 116 21.8516C115.906 21.5339 115.763 21.2526 115.57 21.0078C115.383 20.763 115.141 20.5703 114.844 20.4297C114.552 20.2839 114.206 20.2109 113.805 20.2109ZM120.656 24.7109L124.555 18.5469H126.008V27H124.555V20.8359L120.656 27H119.219V18.5469H120.656V24.7109ZM134.062 22.2109V23.3828H129.594V22.2109H134.062ZM129.898 18.5469V27H128.453V18.5469H129.898ZM135.234 18.5469V27H133.781V18.5469H135.234ZM141.07 27.1562C140.482 27.1562 139.948 27.0573 139.469 26.8594C138.995 26.6562 138.586 26.3724 138.242 26.0078C137.904 25.6432 137.643 25.2109 137.461 24.7109C137.279 24.2109 137.188 23.6641 137.188 23.0703V22.7422C137.188 22.0547 137.289 21.4427 137.492 20.9062C137.695 20.3646 137.971 19.9062 138.32 19.5312C138.669 19.1562 139.065 18.8724 139.508 18.6797C139.951 18.487 140.409 18.3906 140.883 18.3906C141.487 18.3906 142.008 18.4948 142.445 18.7031C142.888 18.9115 143.25 19.2031 143.531 19.5781C143.812 19.9479 144.021 20.3854 144.156 20.8906C144.292 21.3906 144.359 21.9375 144.359 22.5312V23.1797H138.047V22H142.914V21.8906C142.893 21.5156 142.815 21.151 142.68 20.7969C142.549 20.4427 142.341 20.151 142.055 19.9219C141.768 19.6927 141.378 19.5781 140.883 19.5781C140.555 19.5781 140.253 19.6484 139.977 19.7891C139.701 19.9245 139.464 20.1276 139.266 20.3984C139.068 20.6693 138.914 21 138.805 21.3906C138.695 21.7812 138.641 22.2318 138.641 22.7422V23.0703C138.641 23.4714 138.695 23.849 138.805 24.2031C138.919 24.5521 139.083 24.8594 139.297 25.125C139.516 25.3906 139.779 25.599 140.086 25.75C140.398 25.901 140.753 25.9766 141.148 25.9766C141.659 25.9766 142.091 25.8724 142.445 25.6641C142.799 25.4557 143.109 25.1771 143.375 24.8281L144.25 25.5234C144.068 25.7995 143.836 26.0625 143.555 26.3125C143.273 26.5625 142.927 26.7656 142.516 26.9219C142.109 27.0781 141.628 27.1562 141.07 27.1562ZM149.398 18.5469V27H147.945V18.5469H149.398ZM152.234 18.5469V19.7188H145.164V18.5469H152.234Z" fill="white"/>
<defs>
<linearGradient id="paint0_linear_1_142" x1="18.7044" y1="-4.77973e-06" x2="163.514" y2="44.892" gradientUnits="userSpaceOnUse">
<stop stop-color="#C89AFC"/>
<stop offset="1" stop-color="#7C6AFA"/>
</linearGradient>
</defs>
</svg>
