<svg width="143" height="44" viewBox="0 0 143 44" fill="none" xmlns="http://www.w3.org/2000/svg">
<path d="M38.5156 16.8591H33.0312V20.2654H35.8594C37.0469 20.281 37.974 20.5857 38.6406 21.1794C39.3073 21.7732 39.6406 22.5805 39.6406 23.6013C39.6406 24.6274 39.3047 25.4451 38.6328 26.0544C37.9609 26.6638 37.0443 26.9789 35.8828 26.9998H31.5234V15.6248H38.5156V16.8591ZM33.0312 21.4998V25.7732H35.7734C36.5182 25.7732 37.0964 25.5753 37.5078 25.1794C37.9245 24.7836 38.1328 24.2524 38.1328 23.5857C38.1328 22.9451 37.9323 22.4399 37.5312 22.0701C37.1354 21.7003 36.5703 21.5102 35.8359 21.4998H33.0312ZM46.9141 18.5466H48.3594V26.9998H46.9141V20.8357L43.0156 26.9998H41.5703V18.5466H43.0156V24.7185L46.9141 18.5466ZM50.2969 22.6951C50.2969 21.8669 50.4583 21.1222 50.7812 20.4607C51.1094 19.7992 51.5625 19.2888 52.1406 18.9294C52.724 18.5701 53.388 18.3904 54.1328 18.3904C55.2839 18.3904 56.2135 18.7888 56.9219 19.5857C57.6354 20.3826 57.9922 21.4425 57.9922 22.7654V22.8669C57.9922 23.6899 57.8333 24.4294 57.5156 25.0857C57.2031 25.7367 56.7526 26.2445 56.1641 26.6091C55.5807 26.9737 54.9089 27.156 54.1484 27.156C53.0026 27.156 52.0729 26.7576 51.3594 25.9607C50.651 25.1638 50.2969 24.1091 50.2969 22.7966V22.6951ZM51.75 22.8669C51.75 23.8044 51.9661 24.557 52.3984 25.1248C52.8359 25.6925 53.4193 25.9763 54.1484 25.9763C54.8828 25.9763 55.4661 25.6899 55.8984 25.1169C56.3307 24.5388 56.5469 23.7315 56.5469 22.6951C56.5469 21.768 56.3255 21.018 55.8828 20.4451C55.4453 19.8669 54.862 19.5779 54.1328 19.5779C53.4193 19.5779 52.8438 19.8617 52.4062 20.4294C51.9688 20.9972 51.75 21.8097 51.75 22.8669ZM65.2656 19.7419H61.3672V26.9998H59.9141V18.5466H65.2656V19.7419ZM73.6641 22.8669C73.6641 24.1534 73.3698 25.1899 72.7812 25.9763C72.1927 26.7628 71.3958 27.156 70.3906 27.156C69.3646 27.156 68.5573 26.8305 67.9688 26.1794V30.2498H66.5234V18.5466H67.8438L67.9141 19.4841C68.5026 18.755 69.3203 18.3904 70.3672 18.3904C71.3828 18.3904 72.1849 18.7732 72.7734 19.5388C73.3672 20.3044 73.6641 21.3695 73.6641 22.7341V22.8669ZM72.2188 22.7029C72.2188 21.7498 72.0156 20.9972 71.6094 20.4451C71.2031 19.893 70.6458 19.6169 69.9375 19.6169C69.0625 19.6169 68.4062 20.005 67.9688 20.781V24.8201C68.401 25.5909 69.0625 25.9763 69.9531 25.9763C70.6458 25.9763 71.1953 25.7029 71.6016 25.156C72.013 24.6039 72.2188 23.7862 72.2188 22.7029ZM80.7266 26.9998C80.6432 26.8331 80.5755 26.5362 80.5234 26.1091C79.8516 26.807 79.0495 27.156 78.1172 27.156C77.2839 27.156 76.599 26.9216 76.0625 26.4529C75.5312 25.9789 75.2656 25.38 75.2656 24.656C75.2656 23.7758 75.599 23.0935 76.2656 22.6091C76.9375 22.1195 77.8802 21.8748 79.0938 21.8748H80.5V21.2107C80.5 20.7055 80.349 20.3044 80.0469 20.0076C79.7448 19.7055 79.2995 19.5544 78.7109 19.5544C78.1953 19.5544 77.763 19.6847 77.4141 19.9451C77.0651 20.2055 76.8906 20.5206 76.8906 20.8904H75.4375C75.4375 20.4685 75.5859 20.0623 75.8828 19.6716C76.1849 19.2758 76.5911 18.9633 77.1016 18.7341C77.6172 18.505 78.1823 18.3904 78.7969 18.3904C79.7708 18.3904 80.5339 18.6352 81.0859 19.1248C81.638 19.6091 81.9245 20.2784 81.9453 21.1326V25.0232C81.9453 25.7992 82.0443 26.4164 82.2422 26.8748V26.9998H80.7266ZM78.3281 25.8982C78.7812 25.8982 79.2109 25.781 79.6172 25.5466C80.0234 25.3123 80.3177 25.0076 80.5 24.6326V22.8982H79.3672C77.5964 22.8982 76.7109 23.4164 76.7109 24.4529C76.7109 24.906 76.862 25.2602 77.1641 25.5154C77.4661 25.7706 77.8542 25.8982 78.3281 25.8982ZM83.8984 22.9294C83.8984 21.518 84.1719 20.4086 84.7188 19.6013C85.2656 18.794 86.0156 18.3904 86.9688 18.3904C87.4115 18.3904 87.7995 18.4659 88.1328 18.6169V14.9998H89.5781V18.6638C89.9427 18.4815 90.3698 18.3904 90.8594 18.3904C91.8177 18.3904 92.5703 18.794 93.1172 19.6013C93.6641 20.4086 93.9375 21.5727 93.9375 23.0935C93.9375 24.3383 93.6641 25.3279 93.1172 26.0623C92.5755 26.7966 91.8281 27.1638 90.875 27.1638C90.3698 27.1638 89.9375 27.0805 89.5781 26.9138V30.2498H88.1328V26.9373C87.7891 27.0883 87.3958 27.1638 86.9531 27.1638C86.0052 27.1638 85.2578 26.7966 84.7109 26.0623C84.1693 25.3279 83.8984 24.3227 83.8984 23.0466V22.9294ZM92.4922 22.9294C92.4922 21.8669 92.3099 21.044 91.9453 20.4607C91.5807 19.8722 91.0781 19.5779 90.4375 19.5779C90.1094 19.5779 89.8229 19.63 89.5781 19.7341V25.8513C89.8125 25.9399 90.1042 25.9841 90.4531 25.9841C91.099 25.9841 91.599 25.7341 91.9531 25.2341C92.3125 24.7341 92.4922 23.9659 92.4922 22.9294ZM85.3438 23.0935C85.3438 24.0414 85.513 24.7602 85.8516 25.2498C86.1901 25.7393 86.6771 25.9841 87.3125 25.9841C87.6146 25.9841 87.888 25.9373 88.1328 25.8435V19.7107C87.9141 19.6222 87.6458 19.5779 87.3281 19.5779C86.6927 19.5779 86.2031 19.8617 85.8594 20.4294C85.5156 20.9972 85.3438 21.8852 85.3438 23.0935ZM101.289 18.5466H102.734V26.9998H101.289V20.8357L97.3906 26.9998H95.9453V18.5466H97.3906V24.7185L101.289 18.5466ZM111.516 18.5466V26.9998H110.062V23.7107H107.883L105.891 26.9998H104.328L106.453 23.4919C105.911 23.294 105.495 22.9893 105.203 22.5779C104.917 22.1612 104.773 21.6768 104.773 21.1248C104.773 20.3539 105.062 19.7341 105.641 19.2654C106.219 18.7914 106.992 18.5518 107.961 18.5466H111.516ZM106.227 21.1404C106.227 21.5518 106.367 21.8852 106.648 22.1404C106.93 22.3904 107.302 22.518 107.766 22.5232H110.062V19.7185H107.984C107.448 19.7185 107.021 19.8513 106.703 20.1169C106.385 20.3774 106.227 20.7185 106.227 21.1404Z" fill="white"/>
<rect x="0.5" y="0.499756" width="142" height="43" rx="21.5" stroke="white"/>
</svg>
