<svg width="160" height="44" viewBox="0 0 160 44" fill="none" xmlns="http://www.w3.org/2000/svg">
<rect width="160" height="44" rx="22" fill="url(#paint0_linear_1_117)"/>
<path d="M40.7188 27H38.3672V17.5234H33.8125V27H31.4688V15.625H40.7188V27ZM42.2812 22.6953C42.2812 21.8568 42.4427 21.1094 42.7656 20.4531C43.0885 19.7969 43.5521 19.2891 44.1562 18.9297C44.7656 18.5703 45.4714 18.3906 46.2734 18.3906C47.4141 18.3906 48.3438 18.7396 49.0625 19.4375C49.7865 20.1354 50.1901 21.0833 50.2734 22.2812L50.2891 22.8594C50.2891 24.1562 49.9271 25.1979 49.2031 25.9844C48.4792 26.7656 47.5078 27.1562 46.2891 27.1562C45.0703 27.1562 44.0964 26.7656 43.3672 25.9844C42.6432 25.2031 42.2812 24.1406 42.2812 22.7969V22.6953ZM44.5391 22.8594C44.5391 23.6615 44.6901 24.276 44.9922 24.7031C45.2943 25.125 45.7266 25.3359 46.2891 25.3359C46.8359 25.3359 47.263 25.1276 47.5703 24.7109C47.8776 24.2891 48.0312 23.6172 48.0312 22.6953C48.0312 21.9089 47.8776 21.2995 47.5703 20.8672C47.263 20.4349 46.8307 20.2188 46.2734 20.2188C45.7214 20.2188 45.2943 20.4349 44.9922 20.8672C44.6901 21.2943 44.5391 21.9583 44.5391 22.8594ZM51.2344 25.1797C51.7448 24.638 52.0911 24.1016 52.2734 23.5703C52.4557 23.0391 52.5573 22.2865 52.5781 21.3125L52.6406 18.5469H58.8594V25.1797H60.0781V29.5391H57.8203V27H52.8125V29.5391H50.5078V25.1797H51.2344ZM53.8984 25.1797H56.6094V20.4141H54.8516L54.8359 21.4297C54.7891 22.9818 54.4766 24.2318 53.8984 25.1797ZM68.4375 27H66.1719V20.375H63.3438V27H61.0859V18.5469H68.4375V27ZM75.2578 18.5469H77.5156V27H75.2578V21.7812L72.4297 27H70.1641V18.5469H72.4297V23.7578L75.2578 18.5469ZM82.7578 25.3359C83.1745 25.3359 83.513 25.2214 83.7734 24.9922C84.0339 24.763 84.1693 24.4583 84.1797 24.0781H86.2969C86.2917 24.651 86.1354 25.1771 85.8281 25.6562C85.5208 26.1302 85.099 26.5 84.5625 26.7656C84.0312 27.026 83.4427 27.1562 82.7969 27.1562C81.5885 27.1562 80.6354 26.7734 79.9375 26.0078C79.2396 25.237 78.8906 24.1745 78.8906 22.8203V22.6719C78.8906 21.3698 79.237 20.3307 79.9297 19.5547C80.6224 18.7786 81.5729 18.3906 82.7812 18.3906C83.8385 18.3906 84.6849 18.6927 85.3203 19.2969C85.9609 19.8958 86.2865 20.6953 86.2969 21.6953H84.1797C84.1693 21.2578 84.0339 20.9036 83.7734 20.6328C83.513 20.3568 83.1693 20.2188 82.7422 20.2188C82.2161 20.2188 81.8177 20.4115 81.5469 20.7969C81.2812 21.1771 81.1484 21.7969 81.1484 22.6562V22.8906C81.1484 23.7604 81.2812 24.3854 81.5469 24.7656C81.8125 25.1458 82.2161 25.3359 82.7578 25.3359ZM92.4844 27C92.3802 26.7969 92.3047 26.5443 92.2578 26.2422C91.7109 26.8516 91 27.1562 90.125 27.1562C89.2969 27.1562 88.6094 26.9167 88.0625 26.4375C87.5208 25.9583 87.25 25.3542 87.25 24.625C87.25 23.7292 87.5807 23.0417 88.2422 22.5625C88.9089 22.0833 89.8698 21.8411 91.125 21.8359H92.1641V21.3516C92.1641 20.9609 92.0625 20.6484 91.8594 20.4141C91.6615 20.1797 91.3464 20.0625 90.9141 20.0625C90.5339 20.0625 90.2344 20.1536 90.0156 20.3359C89.8021 20.5182 89.6953 20.7682 89.6953 21.0859H87.4375C87.4375 20.5964 87.5885 20.1432 87.8906 19.7266C88.1927 19.3099 88.6198 18.9844 89.1719 18.75C89.724 18.5104 90.3438 18.3906 91.0312 18.3906C92.0729 18.3906 92.8984 18.6536 93.5078 19.1797C94.1224 19.7005 94.4297 20.4349 94.4297 21.3828V25.0469C94.4349 25.849 94.5469 26.4557 94.7656 26.8672V27H92.4844ZM90.6172 25.4297C90.9505 25.4297 91.2578 25.3568 91.5391 25.2109C91.8203 25.0599 92.0286 24.8594 92.1641 24.6094V23.1562H91.3203C90.1901 23.1562 89.5885 23.5469 89.5156 24.3281L89.5078 24.4609C89.5078 24.7422 89.6068 24.974 89.8047 25.1562C90.0026 25.3385 90.2734 25.4297 90.6172 25.4297ZM103.055 20.3594H100.344V27H98.0781V20.3594H95.4141V18.5469H103.055V20.3594ZM106.609 21.0234H108.227C108.956 21.0234 109.596 21.1458 110.148 21.3906C110.701 21.6354 111.122 21.987 111.414 22.4453C111.711 22.8984 111.859 23.4271 111.859 24.0312C111.859 24.9219 111.529 25.6406 110.867 26.1875C110.211 26.7292 109.315 27 108.18 27H104.344V18.5469H106.609V21.0234ZM106.609 22.8359V25.1953H108.211C108.659 25.1953 109.003 25.0911 109.242 24.8828C109.482 24.6745 109.602 24.3906 109.602 24.0312C109.602 23.6667 109.484 23.3776 109.25 23.1641C109.016 22.9453 108.669 22.8359 108.211 22.8359H106.609ZM116.648 25.3359C117.065 25.3359 117.404 25.2214 117.664 24.9922C117.924 24.763 118.06 24.4583 118.07 24.0781H120.188C120.182 24.651 120.026 25.1771 119.719 25.6562C119.411 26.1302 118.99 26.5 118.453 26.7656C117.922 27.026 117.333 27.1562 116.688 27.1562C115.479 27.1562 114.526 26.7734 113.828 26.0078C113.13 25.237 112.781 24.1745 112.781 22.8203V22.6719C112.781 21.3698 113.128 20.3307 113.82 19.5547C114.513 18.7786 115.464 18.3906 116.672 18.3906C117.729 18.3906 118.576 18.6927 119.211 19.2969C119.852 19.8958 120.177 20.6953 120.188 21.6953H118.07C118.06 21.2578 117.924 20.9036 117.664 20.6328C117.404 20.3568 117.06 20.2188 116.633 20.2188C116.107 20.2188 115.708 20.4115 115.438 20.7969C115.172 21.1771 115.039 21.7969 115.039 22.6562V22.8906C115.039 23.7604 115.172 24.3854 115.438 24.7656C115.703 25.1458 116.107 25.3359 116.648 25.3359ZM128.523 18.5469V27H126.273V24.0781H124.844L123.219 27H120.93L122.773 23.6953C122.268 23.4609 121.878 23.1432 121.602 22.7422C121.331 22.3411 121.195 21.8854 121.195 21.375C121.195 20.5573 121.51 19.888 122.141 19.3672C122.776 18.8411 123.625 18.5677 124.688 18.5469H128.523ZM124.727 22.5H126.273V20.3594H124.805C124.404 20.3594 124.078 20.4661 123.828 20.6797C123.578 20.888 123.453 21.1432 123.453 21.4453C123.453 21.7474 123.573 21.9974 123.812 22.1953C124.052 22.3932 124.357 22.4948 124.727 22.5Z" fill="white"/>
<defs>
<linearGradient id="paint0_linear_1_117" x1="19.4083" y1="1.49591e-05" x2="150.382" y2="39.8244" gradientUnits="userSpaceOnUse">
<stop stop-color="#DF5950"/>
<stop offset="1" stop-color="#451046"/>
</linearGradient>
</defs>
</svg>
