<svg width="169" height="44" viewBox="0 0 169 44" fill="none" xmlns="http://www.w3.org/2000/svg">
<rect width="169" height="44" rx="22" fill="url(#paint0_linear_1_171)"/>
<path d="M35.6719 21.5469H33.9062V20.3047H35.3125C35.724 20.3047 36.0573 20.2422 36.3125 20.1172C36.5677 19.987 36.7552 19.8047 36.875 19.5703C36.9948 19.3359 37.0547 19.0599 37.0547 18.7422C37.0547 18.4818 36.987 18.2422 36.8516 18.0234C36.7214 17.8047 36.5182 17.6302 36.2422 17.5C35.9661 17.3646 35.6146 17.2969 35.1875 17.2969C34.8646 17.2969 34.5703 17.3542 34.3047 17.4688C34.0391 17.5833 33.8281 17.7448 33.6719 17.9531C33.5156 18.1562 33.4375 18.4036 33.4375 18.6953H31.1016C31.1016 18.1953 31.2083 17.7474 31.4219 17.3516C31.6406 16.9505 31.9375 16.612 32.3125 16.3359C32.6927 16.0547 33.1302 15.8411 33.625 15.6953C34.1198 15.5495 34.6406 15.4766 35.1875 15.4766C35.8281 15.4766 36.4062 15.5469 36.9219 15.6875C37.4375 15.8229 37.8802 16.026 38.25 16.2969C38.6198 16.5677 38.9036 16.9036 39.1016 17.3047C39.2995 17.7057 39.3984 18.1719 39.3984 18.7031C39.3984 19.0938 39.3099 19.4609 39.1328 19.8047C38.9557 20.1484 38.7031 20.4505 38.375 20.7109C38.0469 20.9714 37.6536 21.1771 37.1953 21.3281C36.737 21.474 36.2292 21.5469 35.6719 21.5469ZM33.9062 20.8672H35.6719C36.2917 20.8672 36.8411 20.9323 37.3203 21.0625C37.8047 21.1927 38.2135 21.3828 38.5469 21.6328C38.8854 21.8828 39.1406 22.1927 39.3125 22.5625C39.4896 22.9271 39.5781 23.3464 39.5781 23.8203C39.5781 24.3516 39.4688 24.8229 39.25 25.2344C39.0365 25.6458 38.7318 25.9948 38.3359 26.2812C37.9453 26.5677 37.4818 26.7839 36.9453 26.9297C36.4141 27.0755 35.8281 27.1484 35.1875 27.1484C34.6771 27.1484 34.1693 27.0859 33.6641 26.9609C33.1589 26.8307 32.7005 26.6328 32.2891 26.3672C31.8776 26.1016 31.5495 25.7604 31.3047 25.3438C31.0599 24.9271 30.9375 24.4271 30.9375 23.8438H33.2891C33.2891 24.1198 33.3698 24.3724 33.5312 24.6016C33.6927 24.8255 33.9167 25.0052 34.2031 25.1406C34.4896 25.2708 34.8177 25.3359 35.1875 25.3359C35.6198 25.3359 35.987 25.2682 36.2891 25.1328C36.5964 24.9974 36.8281 24.8125 36.9844 24.5781C37.1458 24.3385 37.2266 24.0755 37.2266 23.7891C37.2266 23.4818 37.1849 23.2214 37.1016 23.0078C37.0182 22.7943 36.8958 22.6198 36.7344 22.4844C36.5729 22.3438 36.3724 22.2422 36.1328 22.1797C35.8984 22.1172 35.625 22.0859 35.3125 22.0859H33.9062V20.8672ZM45.7344 25.0938V21.3281C45.7344 21.0573 45.6901 20.8255 45.6016 20.6328C45.513 20.4349 45.375 20.2812 45.1875 20.1719C45.0052 20.0625 44.7682 20.0078 44.4766 20.0078C44.2266 20.0078 44.0104 20.0521 43.8281 20.1406C43.6458 20.224 43.5052 20.3464 43.4062 20.5078C43.3073 20.6641 43.2578 20.849 43.2578 21.0625H41.0078C41.0078 20.7031 41.0911 20.362 41.2578 20.0391C41.4245 19.7161 41.6667 19.4323 41.9844 19.1875C42.3021 18.9375 42.6797 18.7422 43.1172 18.6016C43.5599 18.4609 44.0547 18.3906 44.6016 18.3906C45.2578 18.3906 45.8411 18.5 46.3516 18.7188C46.862 18.9375 47.263 19.2656 47.5547 19.7031C47.8516 20.1406 48 20.6875 48 21.3438V24.9609C48 25.4245 48.0286 25.8047 48.0859 26.1016C48.1432 26.3932 48.2266 26.6484 48.3359 26.8672V27H46.0625C45.9531 26.7708 45.8698 26.4844 45.8125 26.1406C45.7604 25.7917 45.7344 25.4427 45.7344 25.0938ZM46.0312 21.8516L46.0469 23.125H44.7891C44.4922 23.125 44.2344 23.1589 44.0156 23.2266C43.7969 23.2943 43.6172 23.3906 43.4766 23.5156C43.3359 23.6354 43.2318 23.776 43.1641 23.9375C43.1016 24.099 43.0703 24.276 43.0703 24.4688C43.0703 24.6615 43.1146 24.8359 43.2031 24.9922C43.2917 25.1432 43.4193 25.263 43.5859 25.3516C43.7526 25.4349 43.9479 25.4766 44.1719 25.4766C44.5104 25.4766 44.8047 25.4089 45.0547 25.2734C45.3047 25.138 45.4974 24.9714 45.6328 24.7734C45.7734 24.5755 45.8464 24.388 45.8516 24.2109L46.4453 25.1641C46.362 25.3776 46.2474 25.599 46.1016 25.8281C45.9609 26.0573 45.7812 26.2734 45.5625 26.4766C45.3438 26.6745 45.0807 26.8385 44.7734 26.9688C44.4661 27.0938 44.1016 27.1562 43.6797 27.1562C43.1432 27.1562 42.6562 27.0495 42.2188 26.8359C41.7865 26.6172 41.4427 26.3177 41.1875 25.9375C40.9375 25.5521 40.8125 25.1146 40.8125 24.625C40.8125 24.1823 40.8958 23.7891 41.0625 23.4453C41.2292 23.1016 41.474 22.8125 41.7969 22.5781C42.125 22.3385 42.5339 22.1589 43.0234 22.0391C43.513 21.9141 44.0807 21.8516 44.7266 21.8516H46.0312ZM52.1328 18.5469V27H49.8828V18.5469H52.1328ZM57.625 18.5469L53.9844 23.8359H51.7344L51.4609 21.7578H52.9531L54.7734 18.5469H57.625ZM54.875 27L52.7969 23.4297L54.7578 22.3438L57.8906 27H54.875ZM63.2969 25.0938V21.3281C63.2969 21.0573 63.2526 20.8255 63.1641 20.6328C63.0755 20.4349 62.9375 20.2812 62.75 20.1719C62.5677 20.0625 62.3307 20.0078 62.0391 20.0078C61.7891 20.0078 61.5729 20.0521 61.3906 20.1406C61.2083 20.224 61.0677 20.3464 60.9688 20.5078C60.8698 20.6641 60.8203 20.849 60.8203 21.0625H58.5703C58.5703 20.7031 58.6536 20.362 58.8203 20.0391C58.987 19.7161 59.2292 19.4323 59.5469 19.1875C59.8646 18.9375 60.2422 18.7422 60.6797 18.6016C61.1224 18.4609 61.6172 18.3906 62.1641 18.3906C62.8203 18.3906 63.4036 18.5 63.9141 18.7188C64.4245 18.9375 64.8255 19.2656 65.1172 19.7031C65.4141 20.1406 65.5625 20.6875 65.5625 21.3438V24.9609C65.5625 25.4245 65.5911 25.8047 65.6484 26.1016C65.7057 26.3932 65.7891 26.6484 65.8984 26.8672V27H63.625C63.5156 26.7708 63.4323 26.4844 63.375 26.1406C63.3229 25.7917 63.2969 25.4427 63.2969 25.0938ZM63.5938 21.8516L63.6094 23.125H62.3516C62.0547 23.125 61.7969 23.1589 61.5781 23.2266C61.3594 23.2943 61.1797 23.3906 61.0391 23.5156C60.8984 23.6354 60.7943 23.776 60.7266 23.9375C60.6641 24.099 60.6328 24.276 60.6328 24.4688C60.6328 24.6615 60.6771 24.8359 60.7656 24.9922C60.8542 25.1432 60.9818 25.263 61.1484 25.3516C61.3151 25.4349 61.5104 25.4766 61.7344 25.4766C62.0729 25.4766 62.3672 25.4089 62.6172 25.2734C62.8672 25.138 63.0599 24.9714 63.1953 24.7734C63.3359 24.5755 63.4089 24.388 63.4141 24.2109L64.0078 25.1641C63.9245 25.3776 63.8099 25.599 63.6641 25.8281C63.5234 26.0573 63.3438 26.2734 63.125 26.4766C62.9062 26.6745 62.6432 26.8385 62.3359 26.9688C62.0286 27.0938 61.6641 27.1562 61.2422 27.1562C60.7057 27.1562 60.2188 27.0495 59.7812 26.8359C59.349 26.6172 59.0052 26.3177 58.75 25.9375C58.5 25.5521 58.375 25.1146 58.375 24.625C58.375 24.1823 58.4583 23.7891 58.625 23.4453C58.7917 23.1016 59.0365 22.8125 59.3594 22.5781C59.6875 22.3385 60.0964 22.1589 60.5859 22.0391C61.0755 21.9141 61.6432 21.8516 62.2891 21.8516H63.5938ZM71.0625 22.9688H69.3906V21.9609H70.5859C70.8672 21.9609 71.0911 21.9219 71.2578 21.8438C71.4297 21.7656 71.5521 21.6562 71.625 21.5156C71.7031 21.3698 71.7422 21.2057 71.7422 21.0234C71.7422 20.862 71.7083 20.7083 71.6406 20.5625C71.5781 20.4115 71.4635 20.2891 71.2969 20.1953C71.1354 20.0964 70.9062 20.0469 70.6094 20.0469C70.3646 20.0469 70.1458 20.0833 69.9531 20.1562C69.7656 20.2292 69.6172 20.3359 69.5078 20.4766C69.4036 20.612 69.3516 20.776 69.3516 20.9688H67.0938C67.0938 20.4323 67.2474 19.974 67.5547 19.5938C67.862 19.2083 68.2734 18.9141 68.7891 18.7109C69.3047 18.5026 69.8698 18.3984 70.4844 18.3984C71.0208 18.3984 71.5052 18.4531 71.9375 18.5625C72.3698 18.6667 72.7396 18.8229 73.0469 19.0312C73.3542 19.2396 73.5885 19.4974 73.75 19.8047C73.9167 20.1068 74 20.4583 74 20.8594C74 21.1458 73.9323 21.4167 73.7969 21.6719C73.6615 21.9271 73.4661 22.1536 73.2109 22.3516C72.9557 22.5443 72.6458 22.6953 72.2812 22.8047C71.9219 22.9141 71.5156 22.9688 71.0625 22.9688ZM69.3906 22.4062H71.0625C71.5677 22.4062 72.0104 22.4557 72.3906 22.5547C72.776 22.6484 73.099 22.7891 73.3594 22.9766C73.6198 23.1641 73.8151 23.3958 73.9453 23.6719C74.0807 23.9427 74.1484 24.2552 74.1484 24.6094C74.1484 25.0104 74.0599 25.3698 73.8828 25.6875C73.7057 26 73.4531 26.2656 73.125 26.4844C72.7969 26.7031 72.4089 26.8698 71.9609 26.9844C71.513 27.099 71.0208 27.1562 70.4844 27.1562C69.9115 27.1562 69.3542 27.0625 68.8125 26.875C68.2708 26.6875 67.8255 26.3984 67.4766 26.0078C67.1328 25.6172 66.9609 25.1146 66.9609 24.5H69.2188C69.2188 24.6771 69.2708 24.8438 69.375 25C69.4792 25.1562 69.6354 25.2812 69.8438 25.375C70.0521 25.4635 70.3099 25.5078 70.6172 25.5078C70.9245 25.5078 71.1719 25.4583 71.3594 25.3594C71.5469 25.2604 71.6823 25.1302 71.7656 24.9688C71.8542 24.8021 71.8984 24.6302 71.8984 24.4531C71.8984 24.2031 71.849 24 71.75 23.8438C71.6562 23.6875 71.5104 23.5729 71.3125 23.5C71.1198 23.4271 70.8776 23.3906 70.5859 23.3906H69.3906V22.4062ZM80.0938 25.0938V21.3281C80.0938 21.0573 80.0495 20.8255 79.9609 20.6328C79.8724 20.4349 79.7344 20.2812 79.5469 20.1719C79.3646 20.0625 79.1276 20.0078 78.8359 20.0078C78.5859 20.0078 78.3698 20.0521 78.1875 20.1406C78.0052 20.224 77.8646 20.3464 77.7656 20.5078C77.6667 20.6641 77.6172 20.849 77.6172 21.0625H75.3672C75.3672 20.7031 75.4505 20.362 75.6172 20.0391C75.7839 19.7161 76.026 19.4323 76.3438 19.1875C76.6615 18.9375 77.0391 18.7422 77.4766 18.6016C77.9193 18.4609 78.4141 18.3906 78.9609 18.3906C79.6172 18.3906 80.2005 18.5 80.7109 18.7188C81.2214 18.9375 81.6224 19.2656 81.9141 19.7031C82.2109 20.1406 82.3594 20.6875 82.3594 21.3438V24.9609C82.3594 25.4245 82.388 25.8047 82.4453 26.1016C82.5026 26.3932 82.5859 26.6484 82.6953 26.8672V27H80.4219C80.3125 26.7708 80.2292 26.4844 80.1719 26.1406C80.1198 25.7917 80.0938 25.4427 80.0938 25.0938ZM80.3906 21.8516L80.4062 23.125H79.1484C78.8516 23.125 78.5938 23.1589 78.375 23.2266C78.1562 23.2943 77.9766 23.3906 77.8359 23.5156C77.6953 23.6354 77.5911 23.776 77.5234 23.9375C77.4609 24.099 77.4297 24.276 77.4297 24.4688C77.4297 24.6615 77.474 24.8359 77.5625 24.9922C77.651 25.1432 77.7786 25.263 77.9453 25.3516C78.112 25.4349 78.3073 25.4766 78.5312 25.4766C78.8698 25.4766 79.1641 25.4089 79.4141 25.2734C79.6641 25.138 79.8568 24.9714 79.9922 24.7734C80.1328 24.5755 80.2057 24.388 80.2109 24.2109L80.8047 25.1641C80.7214 25.3776 80.6068 25.599 80.4609 25.8281C80.3203 26.0573 80.1406 26.2734 79.9219 26.4766C79.7031 26.6745 79.4401 26.8385 79.1328 26.9688C78.8255 27.0938 78.4609 27.1562 78.0391 27.1562C77.5026 27.1562 77.0156 27.0495 76.5781 26.8359C76.1458 26.6172 75.8021 26.3177 75.5469 25.9375C75.2969 25.5521 75.1719 25.1146 75.1719 24.625C75.1719 24.1823 75.2552 23.7891 75.4219 23.4453C75.5885 23.1016 75.8333 22.8125 76.1562 22.5781C76.4844 22.3385 76.8932 22.1589 77.3828 22.0391C77.8724 21.9141 78.4401 21.8516 79.0859 21.8516H80.3906ZM88.2734 18.5469V27H86.0156V18.5469H88.2734ZM90.9922 18.5469V20.2891H83.3359V18.5469H90.9922ZM93.6953 21.0547H96.1484C96.9193 21.0547 97.5755 21.1823 98.1172 21.4375C98.6641 21.6875 99.0807 22.0365 99.3672 22.4844C99.6589 22.9323 99.8047 23.4505 99.8047 24.0391C99.8047 24.4661 99.7214 24.862 99.5547 25.2266C99.3932 25.5859 99.1562 25.8984 98.8438 26.1641C98.5312 26.4297 98.1484 26.6354 97.6953 26.7812C97.2422 26.9271 96.7266 27 96.1484 27H92.2891V18.5469H94.5469V25.25H96.1484C96.487 25.25 96.7578 25.1953 96.9609 25.0859C97.1693 24.9714 97.3203 24.8229 97.4141 24.6406C97.513 24.4583 97.5625 24.2604 97.5625 24.0469C97.5625 23.8229 97.513 23.6198 97.4141 23.4375C97.3203 23.25 97.1693 23.099 96.9609 22.9844C96.7578 22.8698 96.487 22.8125 96.1484 22.8125H93.6953V21.0547ZM107.461 18.5469V27H105.211V18.5469H107.461ZM112.953 18.5469L109.312 23.8359H107.062L106.789 21.7578H108.281L110.102 18.5469H112.953ZM110.203 27L108.125 23.4297L110.086 22.3438L113.219 27H110.203ZM116.57 26.0469L118.812 18.5469H121.227L117.828 28.2734C117.755 28.487 117.656 28.7161 117.531 28.9609C117.411 29.2057 117.247 29.4375 117.039 29.6562C116.836 29.8802 116.578 30.0625 116.266 30.2031C115.958 30.3438 115.581 30.4141 115.133 30.4141C114.919 30.4141 114.745 30.401 114.609 30.375C114.474 30.349 114.312 30.3125 114.125 30.2656V28.6172C114.182 28.6172 114.242 28.6172 114.305 28.6172C114.367 28.6224 114.427 28.625 114.484 28.625C114.781 28.625 115.023 28.5911 115.211 28.5234C115.398 28.4557 115.549 28.3516 115.664 28.2109C115.779 28.0755 115.87 27.8984 115.938 27.6797L116.57 26.0469ZM115.633 18.5469L117.469 24.6719L117.789 27.0547L116.258 27.2188L113.219 18.5469H115.633ZM124.375 20.1719V30.25H122.125V18.5469H124.211L124.375 20.1719ZM129.727 22.6797V22.8438C129.727 23.4583 129.654 24.0286 129.508 24.5547C129.367 25.0807 129.159 25.5391 128.883 25.9297C128.607 26.3151 128.263 26.6172 127.852 26.8359C127.445 27.0495 126.977 27.1562 126.445 27.1562C125.93 27.1562 125.482 27.0521 125.102 26.8438C124.721 26.6354 124.401 26.3438 124.141 25.9688C123.885 25.5885 123.68 25.1484 123.523 24.6484C123.367 24.1484 123.247 23.612 123.164 23.0391V22.6094C123.247 21.9948 123.367 21.4323 123.523 20.9219C123.68 20.4062 123.885 19.9609 124.141 19.5859C124.401 19.2057 124.719 18.9115 125.094 18.7031C125.474 18.4948 125.919 18.3906 126.43 18.3906C126.966 18.3906 127.438 18.4922 127.844 18.6953C128.255 18.8984 128.599 19.1901 128.875 19.5703C129.156 19.9505 129.367 20.4036 129.508 20.9297C129.654 21.4557 129.727 22.0391 129.727 22.6797ZM127.469 22.8438V22.6797C127.469 22.3203 127.438 21.9896 127.375 21.6875C127.318 21.3802 127.224 21.112 127.094 20.8828C126.969 20.6536 126.802 20.4766 126.594 20.3516C126.391 20.2214 126.143 20.1562 125.852 20.1562C125.544 20.1562 125.281 20.2057 125.062 20.3047C124.849 20.4036 124.674 20.5469 124.539 20.7344C124.404 20.9219 124.302 21.1458 124.234 21.4062C124.167 21.6667 124.125 21.9609 124.109 22.2891V23.375C124.135 23.7604 124.208 24.1068 124.328 24.4141C124.448 24.7161 124.633 24.9557 124.883 25.1328C125.133 25.3099 125.461 25.3984 125.867 25.3984C126.164 25.3984 126.414 25.3333 126.617 25.2031C126.82 25.0677 126.984 24.8828 127.109 24.6484C127.24 24.4141 127.331 24.1432 127.383 23.8359C127.44 23.5286 127.469 23.1979 127.469 22.8438ZM134.617 25.3984C134.893 25.3984 135.138 25.3464 135.352 25.2422C135.565 25.1328 135.732 24.9818 135.852 24.7891C135.977 24.5911 136.042 24.3594 136.047 24.0938H138.164C138.159 24.6875 138 25.2161 137.688 25.6797C137.375 26.138 136.956 26.5 136.43 26.7656C135.904 27.026 135.315 27.1562 134.664 27.1562C134.008 27.1562 133.435 27.0469 132.945 26.8281C132.461 26.6094 132.057 26.3073 131.734 25.9219C131.411 25.5312 131.169 25.0781 131.008 24.5625C130.846 24.0417 130.766 23.4844 130.766 22.8906V22.6641C130.766 22.0651 130.846 21.5078 131.008 20.9922C131.169 20.4714 131.411 20.0182 131.734 19.6328C132.057 19.2422 132.461 18.9375 132.945 18.7188C133.43 18.5 133.997 18.3906 134.648 18.3906C135.341 18.3906 135.948 18.5234 136.469 18.7891C136.995 19.0547 137.406 19.4349 137.703 19.9297C138.005 20.4193 138.159 21 138.164 21.6719H136.047C136.042 21.3906 135.982 21.1354 135.867 20.9062C135.758 20.6771 135.596 20.4948 135.383 20.3594C135.174 20.2188 134.917 20.1484 134.609 20.1484C134.281 20.1484 134.013 20.2188 133.805 20.3594C133.596 20.4948 133.435 20.6823 133.32 20.9219C133.206 21.1562 133.125 21.4245 133.078 21.7266C133.036 22.0234 133.016 22.3359 133.016 22.6641V22.8906C133.016 23.2188 133.036 23.5339 133.078 23.8359C133.12 24.138 133.198 24.4062 133.312 24.6406C133.432 24.875 133.596 25.0599 133.805 25.1953C134.013 25.3307 134.284 25.3984 134.617 25.3984Z" fill="white"/>
<defs>
<linearGradient id="paint0_linear_1_171" x1="20.5" y1="1.49591e-05" x2="157.5" y2="44" gradientUnits="userSpaceOnUse">
<stop stop-color="#DF5950"/>
<stop offset="1" stop-color="#451046"/>
</linearGradient>
</defs>
</svg>
